# This file uses centimeters as units for non-parametric coordinates.

mtllib BalconyBottom.mtl
g default
v 135.528752 11.157047 -36.346008
v 135.528752 11.503376 -36.346008
v 135.519463 11.503376 -29.388241
v 135.519463 11.157047 -29.388241
v 67.317002 11.157047 -36.346008
v 67.317002 11.503376 -36.346008
v 67.353211 11.157047 -29.388241
v 67.353211 11.503376 -29.388241
vt 0.999864 0.448999
vt 0.999864 0.448999
vt 0.000531 0.448999
vt 0.000531 0.448999
vt 0.000000 0.551001
vt 1.000000 0.551001
vt 1.000000 0.551001
vt 0.000000 0.551001
vn 0.000000 0.000000 1.000000
vn 0.000000 0.000000 1.000000
vn 0.000000 0.000000 1.000000
vn 0.000000 0.000000 1.000000
vn -0.000000 -1.000000 0.000000
vn -0.000000 -1.000000 0.000000
vn -0.000000 -1.000000 0.000000
vn -0.000000 -1.000000 0.000000
vn 0.999999 0.000000 0.001335
vn 0.999999 0.000000 0.001335
vn 0.999999 0.000000 0.001335
vn 0.999999 0.000000 0.001335
vn 0.000000 1.000000 0.000000
vn 0.000000 1.000000 0.000000
vn 0.000000 1.000000 0.000000
vn 0.000000 1.000000 0.000000
vn -0.999986 0.000000 0.005202
vn -0.999986 0.000000 0.005202
vn -0.999986 0.000000 0.005202
vn -0.999986 0.000000 0.005202
s off
g SaloonBase3 SaloonBalcony
usemtl mia_material_x2SG
f 4/1/1 3/2/2 8/3/3 7/4/4
f 5/5/5 1/6/6 4/1/7 7/4/8
f 1/6/9 2/7/10 3/2/11 4/1/12
f 3/2/13 2/7/14 6/8/15 8/3/16
f 6/8/17 5/5/18 7/4/19 8/3/20
